<svg width="24" height="24" viewBox="0 0 24 24" fill="none" xmlns="http://www.w3.org/2000/svg">
<g id="contact">
<path id="Vector (Stroke)" fill-rule="evenodd" clip-rule="evenodd" d="M17.2094 19.6312C15.8213 20.2365 13.8837 20.5 12 20.5C10.1163 20.5 8.17871 20.2365 6.7906 19.6312C5.45084 19.047 5 18.357 5 17.5C5 16.643 5.45084 15.953 6.7906 15.3688C8.17871 14.7635 10.1163 14.5 12 14.5C13.8837 14.5 15.8213 14.7635 17.2094 15.3688C18.5492 15.953 19 16.643 19 17.5C19 18.357 18.5492 19.047 17.2094 19.6312ZM12 8.5C10.6193 8.5 9.5 7.38071 9.5 6C9.5 4.61929 10.6193 3.5 12 3.5C13.3807 3.5 14.5 4.61929 14.5 6C14.5 7.38071 13.3807 8.5 12 8.5ZM12 10.5C14.4853 10.5 16.5 8.48528 16.5 6C16.5 3.51472 14.4853 1.5 12 1.5C9.51472 1.5 7.5 3.51472 7.5 6C7.5 8.48528 9.51472 10.5 12 10.5ZM12 22.5C16.0235 22.5 21 21.4054 21 17.5C21 13.5946 16.0235 12.5 12 12.5C7.97647 12.5 3 13.5946 3 17.5C3 21.4054 7.97647 22.5 12 22.5Z" fill="#778091"/>
</g>
</svg>
